HIERARCHY
ROOT Hips
{
	OFFSET 0.0000 0.0000 0.0000
	CHANNELS 6 Xposition Yposition Zposition Zrotation Xrotation Yrotation
	JOINT Ab
	{
		OFFSET -0.0000 8.1305 -0.0000
		CHANNELS 3 Zrotation Xrotation Yrotation
		JOINT Chest
		{
			OFFSET -0.0000 26.2902 -0.0000
			CHANNELS 3 Zrotation Xrotation Yrotation
			JOINT Neck
			{
				OFFSET -0.0000 26.2902 0.0000
				CHANNELS 3 Zrotation Xrotation Yrotation
				JOINT Head
				{
					OFFSET -0.0000 10.8167 0.0000
					CHANNELS 3 Zrotation Xrotation Yrotation
					End Site
					{
						OFFSET -0.0000 16.7167 0.0000
					}
				}
			}
			JOINT LeftCollar
			{
				OFFSET -0.0000 26.2902 0.0000
				CHANNELS 3 Zrotation Xrotation Yrotation
				JOINT LeftShoulder
				{
					OFFSET 19.6667 -0.0000 0.0000
					CHANNELS 3 Zrotation Xrotation Yrotation
					JOINT LeftElbow
					{
						OFFSET 27.2190 0.0000 0.0000
						CHANNELS 3 Zrotation Xrotation Yrotation
						JOINT LeftWrist
						{
							OFFSET 30.7431 0.0000 0.0000
							CHANNELS 3 Zrotation Xrotation Yrotation
							End Site
							{
								OFFSET 0.0000 -14.7500 0.0000
							}
						}
					}
				}
			}
			JOINT RightCollar
			{
				OFFSET -0.0000 26.2902 0.0000
				CHANNELS 3 Zrotation Xrotation Yrotation
				JOINT RightShoulder
				{
					OFFSET -19.6667 0.0000 0.0000
					CHANNELS 3 Zrotation Xrotation Yrotation
					JOINT RightElbow
					{
						OFFSET -27.2190 0.0000 0.0000
						CHANNELS 3 Zrotation Xrotation Yrotation
						JOINT RightWrist
						{
							OFFSET -30.7431 0.0000 0.0000
							CHANNELS 3 Zrotation Xrotation Yrotation
							End Site
							{
								OFFSET -0.0000 -14.7500 0.0000
							}
						}
					}
				}
			}
		}
	}
	JOINT LeftHip
	{
		OFFSET 11.8000 0.0000 0.0000
		CHANNELS 3 Zrotation Xrotation Yrotation
		JOINT LeftKnee
		{
			OFFSET -0.0000 -39.7832 0.0000
			CHANNELS 3 Zrotation Xrotation Yrotation
			JOINT LeftAnkle
			{
				OFFSET -0.0000 -41.7317 0.0000
				CHANNELS 3 Zrotation Xrotation Yrotation
				End Site
				{
					OFFSET -0.0000 -4.9167 16.7167
				}
			}
		}
	}
	JOINT RightHip
	{
		OFFSET -11.8000 0.0000 0.0000
		CHANNELS 3 Zrotation Xrotation Yrotation
		JOINT RightKnee
		{
			OFFSET -0.0000 -39.7832 0.0000
			CHANNELS 3 Zrotation Xrotation Yrotation
			JOINT RightAnkle
			{
				OFFSET -0.0000 -41.7317 0.0000
				CHANNELS 3 Zrotation Xrotation Yrotation
				End Site
				{
					OFFSET -0.0000 -4.9167 16.7167
				}
			}
		}
	}
}
MOTION
Frames: 20
Frame Time: 0.010000
-18.9859 97.0097 174.5753 357.2682 356.4157 176.9646 356.8680 347.7157 0.0679 2.4468 8.5997 0.2320 3.3339 356.2645 1.8925 352.1499 1.7918 1.9041 337.5558 357.2440 13.7760 323.0150 58.5145 337.0571 6.6370 358.0087 326.2268 88.0363 1.0622 345.6759 27.0153 356.0501 343.7305 47.3848 45.5744 2.8680 342.1995 354.5791 33.7585 272.7225 355.6370 14.0302 355.5277 2.7562 359.6878 358.2124 6.0912 9.6838 353.0489 351.1347 10.8133 356.5038 4.5063 8.6903 6.3823 7.2067 10.9429 348.0444 344.8194 314.3794 
-18.9873 97.0060 174.5516 357.2695 356.3898 176.9389 356.8767 347.6975 0.0955 2.4563 8.6319 0.2316 3.2868 356.2707 1.9034 352.1888 1.7957 1.9195 337.5409 357.2319 13.8359 323.1196 58.5365 336.9390 6.5923 358.0109 326.2419 88.0490 1.0816 345.6579 27.0211 356.0696 343.7597 47.3268 45.5252 2.8674 342.3052 354.6015 33.8170 272.6788 355.6369 14.1738 355.5333 2.7547 359.6690 358.1904 6.0858 9.6895 353.0501 351.1020 10.8398 356.4996 4.5030 8.7552 6.3885 7.1804 10.9091 348.0339 344.8344 314.3807 
-18.9878 97.0041 174.5299 357.2718 356.3703 176.9298 356.9148 347.7034 0.0750 2.3923 8.6339 0.2338 3.3589 356.2824 1.8960 352.1308 1.8216 1.9120 337.5451 357.2477 13.8170 323.1712 58.4871 336.9317 6.5122 358.0365 326.2275 88.0582 1.0736 345.5953 27.0599 356.0708 343.7505 47.2769 45.5174 2.8820 342.3228 354.5850 33.8421 272.7642 355.7011 14.3293 355.5373 2.7390 359.6200 358.1813 6.1126 9.6864 353.1035 351.0386 10.8818 356.5047 4.5065 8.7548 6.3761 7.1633 10.9119 348.0383 344.8154 314.3888 
-18.9886 97.0015 174.5095 357.2691 356.3480 176.9216 356.9150 347.7057 0.0869 2.3956 8.6275 0.2240 3.3223 356.3527 1.9089 352.1523 1.7918 1.9264 337.5072 357.2258 13.8363 323.2308 58.4538 336.9165 6.4956 358.0428 326.2276 88.0596 1.0737 345.5849 27.0807 356.0869 343.7874 47.2162 45.4910 2.8765 342.3743 354.5986 33.8830 272.7708 355.6842 14.3887 355.5363 2.7221 359.5632 358.1681 6.1328 9.7443 353.0444 350.9976 10.8915 356.4997 4.5064 8.7598 6.3744 7.1490 10.9463 348.0365 344.7991 314.3596 
-18.9875 96.9993 174.4885 357.2683 356.3137 176.9054 356.9130 347.6965 0.0840 2.3903 8.6301 0.2346 3.3797 356.3783 1.9175 352.1258 1.7952 1.9333 337.5093 357.2486 13.8315 323.2688 58.4304 336.8799 6.4437 358.0683 326.2343 88.0360 1.0612 345.5435 27.0905 356.0668 343.7962 47.1883 45.4623 2.8672 342.3922 354.5915 33.9305 272.7910 355.6576 14.5017 355.5430 2.6820 359.5150 358.1555 6.1771 9.7158 353.0865 350.9280 10.9510 356.4986 4.4892 8.7949 6.3734 7.1368 10.9452 348.0613 344.7556 314.3406 
-18.9852 96.9956 174.4610 357.2750 356.2888 176.8892 356.8733 347.7189 0.1093 2.4616 8.5875 0.2552 3.3480 356.4077 1.9271 352.1984 1.8115 1.9454 337.4946 357.2285 13.8303 323.2320 58.4483 336.9120 6.4986 358.0203 326.2445 87.9383 1.0509 345.5278 27.0625 356.0817 343.7619 47.1609 45.4872 2.8590 342.4211 354.6106 33.9741 272.7639 355.6256 14.4805 355.5588 2.6587 359.4550 358.1286 6.2251 9.7073 352.8957 350.7406 11.0348 356.5042 4.4913 8.8398 6.3708 7.1146 10.9479 348.0666 344.7253 314.3082 
-18.9845 96.9918 174.4384 357.2755 356.2580 176.8767 356.8483 347.7578 0.1222 2.4977 8.5261 0.2695 3.3474 356.4182 1.9161 352.2165 1.8361 1.9355 337.4836 357.2312 13.8131 323.1899 58.4858 336.9691 6.5089 358.0323 326.2276 87.8840 1.0437 345.5266 27.0602 356.0567 343.7044 47.1316 45.5083 2.8688 342.4180 354.5817 34.0311 272.7508 355.6339 14.4499 355.5679 2.6176 359.3896 358.0999 6.2874 9.7019 352.8435 350.6271 11.0859 356.5047 4.4705 8.8906 6.3759 7.1247 10.9129 348.0812 344.6597 314.2934 
-18.9862 96.9905 174.4049 357.2652 356.2414 176.8565 356.8420 347.7567 0.1252 2.4988 8.5497 0.2705 3.3504 356.3889 1.9153 352.1888 1.8840 1.9384 337.4968 357.2242 13.8152 323.1687 58.4997 336.9648 6.5658 358.0092 326.2139 87.8135 1.0465 345.5081 27.0626 356.0483 343.7116 47.1215 45.4910 2.8406 342.4728 354.5914 34.0872 272.3711 355.7967 14.9738 355.5611 2.6057 359.3045 358.0779 6.3382 9.7061 352.8762 350.5346 11.1713 356.4924 4.4296 8.6392 6.3477 7.2510 11.2076 348.0805 344.5441 314.2557 
-18.9865 96.9883 174.3781 357.2569 356.1990 176.8418 356.8469 347.7516 0.1235 2.4822 8.5396 0.2694 3.3499 356.3917 1.9163 352.1916 1.9053 1.9396 337.5031 357.2192 13.8108 323.1030 58.4611 337.0334 6.5538 358.0001 326.1957 87.8566 1.0399 345.4787 27.0941 356.0681 343.7195 47.0873 45.4317 2.8178 342.5495 354.6041 34.1776 272.1603 355.8849 15.3054 355.5576 2.5364 359.2178 358.0603 6.4362 9.7083 352.8699 350.4382 11.2544 356.4784 4.3706 8.5496 6.3439 7.3543 11.3371 348.0975 344.3986 314.2151 
-18.9882 96.9865 174.3423 357.2502 356.1779 176.8232 356.8634 347.7606 0.1197 2.4493 8.5265 0.2700 3.3563 356.4484 1.9247 352.1960 1.8729 1.9479 337.5027 357.2224 13.8079 323.0623 58.4025 337.0988 6.5080 358.0038 326.1749 87.8274 1.0426 345.4130 27.1249 356.0498 343.7438 47.0786 45.3965 2.7678 342.5426 354.5832 34.2858 272.2015 355.8927 15.3387 355.5545 2.4947 359.1217 358.0352 6.5435 9.7176 352.7524 350.3046 11.3586 356.4550 4.3452 8.6267 6.3822 7.4170 11.3094 348.0742 344.2487 314.1432 
-18.9893 96.9818 174.3065 357.2405 356.1562 176.7927 356.8466 347.7642 0.1305 2.4689 8.5395 0.2818 3.3760 356.4513 1.9368 352.1444 1.8777 1.9604 337.4923 357.2215 13.8070 323.0186 58.3419 337.1434 6.4994 358.0200 326.1529 87.8451 1.0264 345.4178 27.1395 356.0506 343.7609 47.0450 45.3291 2.7410 342.6014 354.5857 34.4337 272.1756 355.9227 15.3905 355.5422 2.4328 359.0212 358.0200 6.6858 9.7079 352.6974 350.1315 11.4641 356.4292 4.2820 8.5161 6.4047 7.5891 11.4797 348.0765 344.0056 314.0616 
-18.9916 96.9801 174.2652 357.2167 356.1409 176.7504 356.8106 347.7661 0.1438 2.5017 8.5722 0.2965 3.3382 356.4290 1.9413 352.1623 1.8734 1.9647 337.4714 357.2262 13.8181 323.0444 58.2848 337.1075 6.4600 358.0435 326.1339 87.8815 1.0104 345.4384 27.1422 356.0531 343.7536 46.9807 45.2688 2.7706 342.6308 354.5776 34.6116 272.4200 355.8658 15.0775 355.5179 2.4266 358.5846 357.9668 6.7433 10.0364 352.6212 349.9698 11.6343 356.3790 4.2025 8.4131 6.4430 7.8026 11.6795 348.1005 343.6604 313.9670 
-18.9931 96.9771 174.2236 357.1925 356.1186 176.7118 356.7876 347.7765 0.1512 2.5126 8.5823 0.3010 3.3187 356.4119 1.9497 352.1719 1.8759 1.9743 337.4683 357.2202 13.8297 323.0560 58.2750 337.0869 6.4710 358.0310 326.1293 87.9154 0.9861 345.4791 27.1918 356.0447 343.7886 46.9009 45.1230 2.7250 342.7072 354.5748 34.8541 272.6981 355.8058 14.7611 355.5056 2.3747 358.3044 357.9055 6.8610 10.1894 352.8704 349.8693 11.7573 356.3182 4.1241 8.4648 6.5105 8.0179 11.7519 348.0672 343.2969 313.8797 
-18.9938 96.9735 174.1822 357.1676 356.0862 176.6749 356.7881 347.7936 0.1501 2.4827 8.5632 0.2996 3.3202 356.4161 1.9709 352.1871 1.8731 1.9954 337.4815 357.2216 13.8438 322.9875 58.2373 337.1606 6.4720 358.0116 326.0951 87.7045 0.9849 345.3801 27.2529 356.0457 343.8147 46.8374 45.0126 2.6740 342.8079 354.5735 35.0788 272.6929 355.8615 14.8651 355.4870 2.2798 358.1540 357.8629 7.0568 10.2043 351.8874 349.6573 11.9263 356.2650 4.0130 8.4992 6.5781 8.2800 11.8243 348.0894 342.8138 313.7757 
-18.9959 96.9690 174.1410 357.1437 356.0534 176.6384 356.7801 347.8130 0.1534 2.4718 8.5577 0.3071 3.3035 356.3790 1.9916 352.2046 1.8983 2.0162 337.4936 357.2214 13.8655 322.9512 58.2198 337.1606 6.4895 358.0101 326.0909 87.5619 0.9656 345.3477 27.2864 356.0434 343.8324 46.7945 44.9497 2.6492 342.8698 354.5459 35.3027 272.7474 355.9534 14.9766 355.4773 2.1682 358.0012 357.8164 7.3007 10.2274 351.1610 349.3464 12.0795 356.1922 3.8817 8.5481 6.6771 8.5410 11.8680 348.1858 342.1969 313.6113 
-18.9976 96.9601 174.1021 357.1255 356.0139 176.6055 356.7563 347.8249 0.1625 2.4997 8.5787 0.3146 3.2775 356.2776 2.0033 352.1893 1.9625 2.0309 337.4252 357.2018 13.9083 323.2494 58.1638 336.9576 6.3444 358.0872 326.0039 87.5700 0.9914 345.3512 27.2947 356.0552 343.8291 46.7301 44.8765 2.6667 342.9434 354.5422 35.5710 272.8021 356.0707 15.1003 355.4620 2.0183 357.8507 357.7691 7.5698 10.2350 351.3899 349.1304 12.1144 356.1372 3.7471 8.5991 6.7837 8.8151 11.8875 348.1579 341.7375 313.5066 
-19.0012 96.9494 174.0585 357.1035 355.9686 176.5769 356.7435 347.8277 0.1574 2.4984 8.6036 0.3115 3.2867 356.1904 2.0190 352.1637 1.9885 2.0465 337.3812 357.1957 13.9409 323.4627 58.0815 336.8271 6.2024 358.1369 325.9278 87.5268 1.0260 345.2657 27.3044 356.0391 343.8489 46.7088 44.7567 2.6228 343.0235 354.5253 35.9126 272.7182 356.1959 15.3935 355.4464 1.8631 357.7145 357.7322 7.8656 10.2076 351.5247 348.8775 12.1611 356.0685 3.6088 8.5903 6.8860 9.0798 12.1303 348.0049 341.4080 313.2845 
-19.0033 96.9366 174.0128 357.0945 355.9225 176.5511 356.7636 347.8479 0.1484 2.4649 8.6108 0.3037 3.3180 356.1026 2.0453 352.1407 2.0116 2.0700 337.4064 357.1905 13.9762 323.4742 58.0775 336.7779 6.2192 358.1058 325.8858 87.9229 1.0776 345.4207 27.3502 356.0552 343.8729 46.6379 44.6330 2.5795 343.2613 354.5773 36.3016 272.1948 356.1503 16.2922 355.4442 1.7079 357.5733 357.6906 8.1672 10.1701 351.1823 348.5652 12.2969 356.0176 3.4827 8.6126 6.9864 9.3599 12.7246 347.7802 341.0782 312.6798 
-19.0045 96.9198 173.9647 357.0952 355.8686 176.5228 356.7879 347.8665 0.1496 2.4532 8.6217 0.3013 3.3217 355.9703 2.0785 352.1094 2.0915 2.1052 337.4165 357.1985 13.9984 323.4480 58.0525 336.7808 6.2011 358.0941 325.8150 88.3917 1.1334 345.6101 27.3732 356.0567 343.8895 46.5433 44.5752 2.5707 343.3548 354.5319 36.7462 272.3140 356.1896 16.2287 355.4555 1.5550 357.4506 357.6398 8.4501 10.1006 350.4585 348.2533 12.4380 355.9927 3.3635 8.6412 7.0675 9.5868 12.7757 347.8037 340.6370 312.6194 
-19.0050 96.9005 173.9117 357.0948 355.8066 176.4969 356.7885 347.8695 0.1534 2.4713 8.6487 0.3022 3.3245 355.8548 2.0972 352.0658 2.1356 2.1249 337.4181 357.1979 13.9997 323.4480 58.0394 336.7723 6.2041 358.0723 325.7929 88.4196 1.1236 345.6259 27.3839 356.0231 343.8934 46.4342 44.5313 2.5590 343.4085 354.4623 37.2620 272.7952 355.9814 15.6252 355.4631 1.4042 357.3525 357.5926 8.7248 10.0163 349.9984 347.9363 12.5413 355.9701 3.2426 8.5916 7.1322 9.8057 12.9073 347.6385 340.3262 312.5300 
